<svg width="330" height="462" viewBox="0 0 330 462" fill="none" xmlns="http://www.w3.org/2000/svg">
<path fill-rule="evenodd" clip-rule="evenodd" d="M96.6264 238.452C98.3004 242.983 102.802 245.831 107.613 245.403L205.128 236.735C215.941 235.774 223.638 225.799 221.823 215.095C220.007 204.372 209.421 197.487 198.883 200.176L104.02 224.372C97.8659 225.941 94.4234 232.494 96.6264 238.452Z" fill="#F4B784"/>
<path fill-rule="evenodd" clip-rule="evenodd" d="M52.5288 420.379C52.5288 420.379 36.7813 433.85 13.5371 425.412C4.79361 422.239 -3.33517 428.159 1.39184 436.245C4.89387 442.235 13.1186 447.75 24.466 451.905C39.6672 457.472 40.9212 448.736 48.4833 453.298C52.8674 455.941 63.0421 459.014 65.4776 455.961C69.7323 450.625 70.485 447.116 74.6177 440.352C94.7421 407.414 87.4663 393.192 52.5288 420.379Z" fill="#253368"/>
<path fill-rule="evenodd" clip-rule="evenodd" d="M133.673 420.113C133.673 420.113 129.711 433.834 111.415 448.345C99.4137 457.862 112.172 467.947 137.522 456.78C151.975 450.412 146.451 444.408 154.949 442.308C159.874 441.091 169.069 436.44 168.504 433.071C167.514 427.18 165.466 424.608 163.35 417.944C153.043 385.495 137.689 381.653 133.673 420.113Z" fill="#253368"/>
<path fill-rule="evenodd" clip-rule="evenodd" d="M163.88 412.158L147.986 269.622C146.7 258.08 134.507 249.884 121.384 251.741C108.714 253.534 100.171 264.019 102.394 275.048L130.884 416.308C130.884 416.308 145.2 421.242 163.88 412.158Z" fill="#4E5C93"/>
<path fill-rule="evenodd" clip-rule="evenodd" d="M312.834 237.126C312.834 237.126 231.488 243.271 225.962 235.264C223.529 231.74 221.784 249.345 217.326 278.395C224.512 291.679 238.271 302.346 256.289 301.845C285.746 301.027 312.58 297.705 315.614 277.986C317.796 263.802 315.98 248.63 312.834 237.126Z" fill="#ADC6FF"/>
<path fill-rule="evenodd" clip-rule="evenodd" d="M224.711 227.843L223.909 237.629C223.909 237.629 231.747 238.987 259.136 240.387C286.923 241.809 312.759 238.6 312.759 238.6L312.883 229.692C312.883 229.692 256.971 231.343 224.711 227.843Z" fill="#ADC6FF"/>
<path fill-rule="evenodd" clip-rule="evenodd" d="M125.131 280.194C125.641 292.734 135.973 302.63 148.525 302.595L288.454 302.21C304.695 302.165 317.651 288.636 316.993 272.405C316.333 256.175 302.324 243.739 286.13 245.012L146.631 255.97C134.12 256.952 124.621 267.653 125.131 280.194Z" fill="#ADC6FF"/>
<path fill-rule="evenodd" clip-rule="evenodd" d="M81.4125 431.67L167.631 291.972C174.615 280.66 170.591 265.802 158.857 259.555C147.525 253.524 133.45 257.923 127.571 269.334L52.2628 415.489C52.2628 415.489 60.2376 428.658 81.4125 431.67Z" fill="#ADC6FF"/>
<path fill-rule="evenodd" clip-rule="evenodd" d="M201.034 232.281C210.807 233.635 219.935 227.127 221.837 217.449L239.083 129.776C241.619 116.882 232.794 104.507 219.777 102.701C206.914 100.918 195.146 110.188 193.869 123.112L185.08 212.03C184.1 221.969 191.141 230.909 201.034 232.281Z" fill="#F4B784"/>
<path fill-rule="evenodd" clip-rule="evenodd" d="M185.105 179.571L228.356 185.386L237.168 127.641C239.096 115.001 230.286 103.237 217.613 101.534C204.942 99.8291 193.336 108.849 191.858 121.549L185.105 179.571Z" fill="#597EF7"/>
<path fill-rule="evenodd" clip-rule="evenodd" d="M241.227 86.2057L239.561 48.4594L273.515 46.6779L279.208 82.3492C280.927 93.1241 273.296 103.151 262.454 104.364C251.457 105.595 241.715 97.2611 241.227 86.2057Z" fill="#F4B784"/>
<path fill-rule="evenodd" clip-rule="evenodd" d="M230.351 46.6167C230.351 46.6167 224.643 41.7952 222.835 45.614C221.026 49.4314 226.138 61.9065 231.77 61.6725C239.289 61.3586 230.351 46.6167 230.351 46.6167Z" fill="#F4B784"/>
<path fill-rule="evenodd" clip-rule="evenodd" d="M266.262 76.2588C266.262 76.2588 256.19 86.3653 240.742 78.9224C229.62 73.5662 225.977 50.4673 226.272 33.2144C226.439 23.4508 230.362 17.8112 239.479 14.0055C248.599 10.2012 274.096 7.52894 277.125 35.9041C280.498 67.5081 266.262 76.2588 266.262 76.2588Z" fill="#F4B784"/>
<path d="M243.047 36.0519C243.287 35.9647 243.549 36.0651 243.674 36.2781L243.714 36.3632L245.839 42.212C245.857 42.2605 245.867 42.3111 245.87 42.3623L245.868 42.4393L244.346 58.3223L250.53 57.7514C250.787 57.7276 251.018 57.8958 251.081 58.1382L251.095 58.2216C251.119 58.4791 250.951 58.71 250.709 58.7729L250.625 58.7875L243.816 59.4167C243.521 59.444 243.269 59.2209 243.249 58.9361L243.25 58.849L244.821 42.4561L242.736 36.7186C242.648 36.4786 242.749 36.2161 242.962 36.0918L243.047 36.0519Z" fill="#DD936F"/>
<path d="M263.982 31.992C264.749 31.7578 265.561 32.1903 265.795 32.9579C266.03 33.7255 265.597 34.5376 264.829 34.7718C263.298 35.2389 260.698 35.3777 256.431 35.3519L254.745 35.335L250.847 35.2811C250.045 35.2743 249.4 34.6181 249.406 33.8156C249.413 33.0131 250.069 32.3681 250.872 32.3749L256.008 32.4425L257.215 32.4481C260.694 32.45 262.922 32.3152 263.982 31.992Z" fill="#232E36"/>
<path d="M255.708 61.7629C256.085 61.6242 256.502 61.817 256.641 62.1936C256.78 62.5701 256.587 62.9878 256.21 63.1264L255.943 63.218C255.793 63.267 255.602 63.3264 255.37 63.3938C254.703 63.5878 253.926 63.7811 253.047 63.9612C250.413 64.5004 247.423 64.8112 244.141 64.7783C243.74 64.7743 243.418 64.4457 243.422 64.0445C243.426 63.6432 243.754 63.3212 244.156 63.3253C247.331 63.3571 250.219 63.0569 252.755 62.5376C253.456 62.3942 254.085 62.2426 254.64 62.0901L254.964 61.9984C255.337 61.8901 255.587 61.8074 255.708 61.7629Z" fill="#FF7946"/>
<path fill-rule="evenodd" clip-rule="evenodd" d="M275.129 48.4001L279.547 36.9001C279.547 36.9001 281.446 20.7748 277.103 14.365C270.366 4.41839 257.429 6.02555 249.447 4.0028C241.466 1.98005 241.275 -0.616685 238.197 0.131674C235.119 0.881487 223.894 10.5433 223.437 19.496C223.033 27.3661 227.024 46.9063 227.024 46.9063C227.024 46.9063 227.416 29.2029 228.629 24.4134C234.468 21.2441 256.614 18.8552 266.153 20.7631C266.153 20.7631 267.563 26.6323 268.454 30.7766C273.768 33.8137 275.129 48.4001 275.129 48.4001Z" fill="#232E36"/>
<path d="M274.584 63.0519C274.686 62.7833 274.987 62.6481 275.255 62.75C275.524 62.8519 275.659 63.1523 275.557 63.4209C274.329 66.6593 272.803 69.4646 271.046 71.8662C269.337 74.2021 267.503 76.0362 265.666 77.4245C265.019 77.9129 264.418 78.311 263.875 78.6259C263.545 78.8179 263.304 78.9409 263.194 78.9894C255.68 82.8878 248.764 82.8466 242.909 80.429C242.037 80.069 241.267 79.6828 240.607 79.2955L240.293 79.1067C240.057 78.9605 239.884 78.8431 239.777 78.7639C239.546 78.5927 239.498 78.2669 239.669 78.0362C239.84 77.8054 240.166 77.757 240.397 77.9282L240.531 78.0226C240.669 78.1158 240.87 78.2439 241.133 78.3979C241.753 78.7616 242.48 79.1263 243.306 79.4673C248.783 81.729 255.233 81.8111 262.316 78.2701L262.931 77.9596C263.041 77.9028 263.182 77.8255 263.353 77.7263C263.859 77.432 264.426 77.057 265.038 76.5944C266.797 75.2657 268.559 73.5036 270.206 71.2519C271.908 68.9254 273.389 66.2026 274.584 63.0519Z" fill="#DD936F"/>
<path d="M233.47 32.7518C235.664 32.535 237.966 32.8487 240.224 33.4992C241.281 33.8035 242.096 34.1109 242.578 34.3261C243.311 34.6532 243.64 35.5124 243.313 36.2453C242.986 36.9781 242.126 37.3071 241.394 36.9799L241.204 36.9004C241.119 36.8659 241.012 36.8239 240.884 36.7759C240.449 36.6116 239.956 36.4464 239.42 36.2919C237.486 35.7349 235.532 35.4685 233.755 35.6439C232.198 35.7977 230.873 36.286 229.811 37.1514C229.189 37.6584 228.274 37.5652 227.767 36.9431C227.26 36.321 227.353 35.4057 227.975 34.8987C229.513 33.6452 231.377 32.9585 233.47 32.7518Z" fill="#232E36"/>
<path d="M251.675 67.8696C251.962 67.8484 252.211 68.0635 252.232 68.3501C252.251 68.6079 252.079 68.8357 251.835 68.8942L251.752 68.9072L247.663 69.2094C247.376 69.2306 247.127 69.0155 247.105 68.729C247.086 68.4711 247.259 68.2433 247.502 68.1849L247.586 68.1719L251.675 67.8696Z" fill="#DD936F"/>
<path fill-rule="evenodd" clip-rule="evenodd" d="M276.715 39.3095C278.483 37.0208 281.521 36.0981 283.987 38.2255C287.96 41.6534 286.302 56.266 276.826 57.9488C273.147 57.8601 273.958 42.8798 276.715 39.3095Z" fill="#F4B784"/>
<path d="M280.882 40.1556C281.138 40.0246 281.451 40.1257 281.582 40.3814C281.713 40.6371 281.612 40.9506 281.357 41.0816L281.235 41.1493C281.159 41.1937 281.061 41.254 280.947 41.3297C280.627 41.5426 280.307 41.7949 280.009 42.0839C278.875 43.1848 278.395 44.4628 278.881 45.9426C279.008 46.3258 279.177 46.5012 279.569 46.6917L279.828 46.8084C280.669 47.175 281.056 47.5243 281.227 48.3783C281.49 49.6978 280.941 50.7608 279.906 51.5468C279.412 51.9215 278.923 52.1567 278.58 52.2738C278.308 52.3667 278.013 52.2216 277.92 51.9497C277.827 51.6778 277.972 51.3821 278.244 51.2892L278.335 51.2544C278.393 51.2309 278.468 51.1982 278.555 51.1561C278.802 51.0374 279.049 50.8913 279.277 50.7182C280.023 50.1513 280.381 49.4579 280.207 48.5823C280.125 48.174 279.997 48.0305 279.544 47.8212L279.288 47.7075C278.551 47.3815 278.142 47.0233 277.893 46.2682C277.264 44.3566 277.891 42.6902 279.284 41.3373C279.631 41.0008 280.001 40.7096 280.371 40.4634C280.596 40.3141 280.773 40.2113 280.882 40.1556Z" fill="#DD936F"/>
<path d="M237.222 45.3153C239.224 45.1679 240.939 46.8624 241.101 49.051C241.131 49.4512 240.83 49.7996 240.43 49.8292C240.03 49.8588 239.681 49.5583 239.652 49.1582C239.546 47.7293 238.484 46.6795 237.329 46.7646C236.173 46.8496 235.277 48.0432 235.382 49.473C235.411 49.8732 235.11 50.2214 234.71 50.2506C234.31 50.2799 233.962 49.9792 233.932 49.579C233.772 47.3896 235.219 45.4627 237.222 45.3153Z" fill="#232E36"/>
<path d="M259.423 43.6789C261.427 43.5314 263.141 45.2255 263.302 47.4146C263.332 47.8147 263.032 48.1631 262.631 48.1927C262.231 48.2223 261.883 47.9219 261.853 47.5217C261.748 46.0923 260.686 45.043 259.53 45.1281C258.376 45.2131 257.48 46.4069 257.584 47.8366C257.614 48.2368 257.313 48.5849 256.913 48.6142C256.513 48.6434 256.164 48.3427 256.135 47.9425C255.975 45.7535 257.422 43.8263 259.423 43.6789Z" fill="#232E36"/>
<path fill-rule="evenodd" clip-rule="evenodd" d="M312.271 213.233C312.271 213.233 312.628 177.148 314.795 160.898C317.251 142.486 324.865 109.046 319.259 104.56C311.076 98.0136 285.998 89.8586 285.998 89.8586C285.998 89.8586 273.43 91.3001 259.297 94.3095C248.109 96.6927 249.657 89.6625 236.093 91.9046C230.349 92.8535 210.049 99.9026 206.336 104.014C196.307 115.115 203.831 135.443 207.973 155.293C214.159 184.954 223.791 212.027 223.791 212.027C223.791 212.027 217.011 225.133 222.739 231.679C225.964 235.027 225.519 233.516 243.39 233.56C263.732 233.609 306.201 232.566 309.273 231.474C319.157 227.961 312.271 213.233 312.271 213.233Z" fill="#597EF7"/>
<path fill-rule="evenodd" clip-rule="evenodd" d="M241.112 86.4396L255.544 94.5683L240.942 109.64L235.286 92.2971L241.112 86.4396Z" fill="#597EF7"/>
<path fill-rule="evenodd" clip-rule="evenodd" d="M255.206 94.9232L268.037 112.897L286.897 90.7353L278.537 80.6477L255.206 94.9232Z" fill="#597EF7"/>
<path d="M254.331 96.35C254.729 96.399 255.012 96.7615 254.963 97.1597L254.909 97.6346L254.796 98.7426L254.684 99.9619C254.562 101.35 254.442 102.938 254.328 104.721L254.232 106.279C253.529 118.343 253.437 133.284 254.317 150.867C255.581 176.124 258.726 203.72 264.164 233.389C264.236 233.783 263.975 234.162 263.58 234.234C263.185 234.307 262.807 234.045 262.734 233.651C257.285 203.918 254.133 176.259 252.865 150.94L252.756 148.655C251.974 131.626 252.112 117.136 252.829 105.406L252.877 104.629C252.992 102.833 253.114 101.234 253.237 99.8338L253.35 98.6025L253.514 97.0431C253.516 97.0197 253.519 96.9996 253.521 96.9826C253.566 96.6175 253.874 96.3491 254.232 96.3446L254.331 96.35Z" fill="#253368"/>
<path d="M297.178 131.122L282.661 131.601C278.204 131.744 273.513 131.891 268.653 132.039C268.248 132.051 267.931 132.393 267.949 132.797L268.023 134.324C268.283 139.338 268.693 143.616 269.214 147.209C269.519 149.311 269.844 151.06 270.172 152.482L270.254 152.831C270.354 153.249 270.449 153.613 270.538 153.925L270.602 154.15C270.667 154.37 270.715 154.518 270.743 154.596C270.792 154.732 270.88 154.85 270.996 154.936L284.497 164.892C284.755 165.081 285.106 165.081 285.362 164.89L298.182 155.342C298.371 155.202 298.48 154.978 298.475 154.742L297.929 131.831C297.92 131.427 297.582 131.108 297.178 131.122ZM296.493 132.599L297.013 154.401L284.927 163.402L272.046 153.905L271.996 153.738C271.897 153.404 271.787 152.99 271.667 152.492C271.349 151.165 271.029 149.512 270.727 147.509L270.576 146.463C270.101 143.047 269.724 139.016 269.478 134.329L269.435 133.469L285.354 132.968L296.493 132.599Z" fill="#253368"/>
<path fill-rule="evenodd" clip-rule="evenodd" d="M255.372 111.933C255.505 113.22 256.485 114.174 257.556 114.062C258.628 113.95 259.391 112.816 259.256 111.529C259.122 110.241 258.144 109.288 257.072 109.4C256 109.512 255.238 110.645 255.372 111.933Z" fill="white"/>
<path fill-rule="evenodd" clip-rule="evenodd" d="M255.778 138.187C255.913 139.475 256.891 140.428 257.963 140.316C259.036 140.204 259.797 139.071 259.663 137.783C259.53 136.496 258.55 135.543 257.478 135.654C256.405 135.766 255.644 136.9 255.778 138.187Z" fill="white"/>
<path fill-rule="evenodd" clip-rule="evenodd" d="M256.596 162.531C256.73 163.819 257.709 164.772 258.782 164.66C259.854 164.548 260.616 163.415 260.482 162.128C260.347 160.84 259.369 159.887 258.296 159.999C257.224 160.111 256.463 161.244 256.596 162.531Z" fill="white"/>
<path fill-rule="evenodd" clip-rule="evenodd" d="M258.643 188.921C258.776 190.208 259.754 191.161 260.827 191.05C261.899 190.938 262.66 189.804 262.527 188.517C262.393 187.229 261.414 186.276 260.343 186.388C259.27 186.5 258.507 187.633 258.643 188.921Z" fill="white"/>
<path fill-rule="evenodd" clip-rule="evenodd" d="M262.62 218.267C262.754 219.555 263.733 220.508 264.806 220.396C265.877 220.284 266.64 219.151 266.504 217.863C266.371 216.576 265.393 215.623 264.32 215.735C263.248 215.847 262.487 216.98 262.62 218.267Z" fill="white"/>
<path d="M284.295 89.4153C284.524 89.086 284.977 89.005 285.306 89.2343C285.606 89.4427 285.7 89.8359 285.542 90.1531L285.487 90.2457L271.613 110.169C271.381 110.503 270.927 110.576 270.604 110.353L270.52 110.284L254.913 95.6587C254.621 95.3843 254.606 94.9246 254.88 94.6318C255.129 94.3656 255.532 94.3291 255.823 94.5308L255.907 94.5985L270.9 108.649L284.295 89.4153Z" fill="#253368"/>
<path d="M234.475 93.6205C234.818 93.4869 235.201 93.6311 235.374 93.944L235.416 94.0334L242.034 111.001L254.344 94.5895C254.562 94.2977 254.959 94.2174 255.27 94.3861L255.361 94.4442C255.653 94.6631 255.733 95.0594 255.564 95.3708L255.506 95.4614L242.413 112.918C242.093 113.345 241.449 113.287 241.2 112.84L241.155 112.746L234.063 94.5615C233.917 94.1876 234.102 93.7664 234.475 93.6205Z" fill="#253368"/>
<path d="M206.209 134.509C206.608 134.468 206.965 134.758 207.006 135.157C208.081 145.597 209.652 154.944 211.933 164.867L212.264 166.289C213.581 171.888 215.092 177.599 217.212 185.101L225.038 212.376C225.084 212.54 225.071 212.714 225.002 212.87C221.794 220.032 222.144 225.692 224.627 229.958C225.043 230.672 225.487 231.281 225.929 231.784L226.135 232.01L226.317 232.198L227.107 232.254C231.653 232.559 236.572 232.76 241.809 232.865L243.024 232.888C254.033 233.077 265.79 232.855 277.42 232.358L279.6 232.262C282.638 232.123 285.45 231.975 287.983 231.826L292.048 231.57C292.448 231.542 292.795 231.843 292.824 232.243C292.852 232.644 292.551 232.991 292.151 233.019L289.541 233.189L286.656 233.358C284.737 233.466 282.675 233.573 280.491 233.675L279.666 233.713C267.3 234.278 254.731 234.543 242.999 234.341C236.874 234.235 231.168 234.003 225.961 233.631C225.807 233.62 225.66 233.56 225.542 233.46C224.98 232.983 224.171 232.063 223.371 230.689C220.706 226.111 220.29 220.101 223.487 212.704L223.568 212.519L216.493 187.887L215.813 185.494C213.688 177.974 212.172 172.245 210.849 166.621C208.375 156.105 206.693 146.306 205.561 135.306C205.52 134.907 205.81 134.55 206.209 134.509Z" fill="#253368"/>
<path fill-rule="evenodd" clip-rule="evenodd" d="M300.041 233.738C309.89 234.275 318.446 227.029 319.538 217.226L329.426 128.423C330.881 115.362 321.058 103.764 307.936 103.048C294.968 102.342 284.013 112.559 283.816 125.544L282.458 214.885C282.307 224.871 290.07 233.194 300.041 233.738Z" fill="#F4B784"/>
<path fill-rule="evenodd" clip-rule="evenodd" d="M283.043 180.838L326.653 182.423L329.814 124.095C330.504 111.328 320.592 100.476 307.815 100.011C295.038 99.5457 284.363 109.651 284.126 122.434L283.043 180.838Z" fill="#597EF7"/>
<path d="M284.085 122.654C284.453 122.661 284.752 122.939 284.794 123.295L284.798 123.394L283.782 180.137L326.679 181.696C327.047 181.71 327.341 181.994 327.376 182.35L327.379 182.449C327.366 182.817 327.081 183.11 326.725 183.146L326.627 183.149L283.017 181.563C282.654 181.55 282.362 181.273 282.322 180.922L282.317 180.824L283.346 123.368C283.353 122.966 283.684 122.647 284.085 122.654Z" fill="#253368"/>
<path fill-rule="evenodd" clip-rule="evenodd" d="M145.273 266.865L230.785 260.156L149.084 228.225L78.0969 240.761L145.273 266.865Z" fill="#CCD7EE"/>
<path fill-rule="evenodd" clip-rule="evenodd" d="M142.553 260.727L204.658 255.853L146.776 232.662L93.7659 241.768L142.553 260.727Z" fill="#4E5C93"/>
<path fill-rule="evenodd" clip-rule="evenodd" d="M230.391 264.51L230.799 260.186L143.584 266.341L144.678 271.078L230.391 264.51Z" fill="#4E5C93"/>
<path d="M134.763 235.595C134.836 235.436 135.01 235.355 135.175 235.393L135.244 235.417L182.122 256.92C182.304 257.004 182.384 257.219 182.301 257.402C182.228 257.561 182.053 257.642 181.889 257.604L181.819 257.58L134.941 236.077C134.759 235.993 134.679 235.778 134.763 235.595Z" fill="#CCD7EE"/>
<path d="M141.367 233.535C141.438 233.374 141.611 233.29 141.776 233.325L141.846 233.348L194.342 256.373C194.525 256.453 194.609 256.667 194.528 256.851C194.458 257.012 194.285 257.096 194.12 257.061L194.05 257.038L141.554 234.013C141.371 233.933 141.287 233.718 141.367 233.535Z" fill="#CCD7EE"/>
<path d="M133.689 239.926C133.764 239.767 133.94 239.688 134.104 239.729L134.173 239.754L173.489 258.454C173.67 258.54 173.747 258.757 173.661 258.938C173.585 259.097 173.41 259.175 173.246 259.135L173.177 259.11L133.861 240.41C133.68 240.324 133.603 240.107 133.689 239.926Z" fill="#CCD7EE"/>
<path d="M122.494 240.158C122.569 240 122.745 239.921 122.909 239.961L122.978 239.986L162.294 258.686C162.475 258.773 162.552 258.989 162.466 259.171C162.39 259.329 162.215 259.408 162.051 259.367L161.982 259.343L122.666 240.642C122.485 240.556 122.408 240.339 122.494 240.158Z" fill="#CCD7EE"/>
<path d="M112.099 241.096C112.175 240.937 112.35 240.858 112.514 240.899L112.583 240.924L151.899 259.624C152.08 259.71 152.157 259.927 152.071 260.108C151.996 260.267 151.82 260.345 151.656 260.305L151.587 260.28L112.271 241.58C112.09 241.494 112.013 241.277 112.099 241.096Z" fill="#CCD7EE"/>
<path d="M194.837 252.404C195.037 252.395 195.207 252.551 195.216 252.751C195.223 252.926 195.106 253.078 194.942 253.119L194.869 253.13L141.866 255.467C141.666 255.475 141.496 255.32 141.487 255.12C141.479 254.944 141.597 254.792 141.761 254.751L141.834 254.741L194.837 252.404Z" fill="#CCD7EE"/>
<path d="M183.517 247.381C183.717 247.372 183.887 247.527 183.896 247.728C183.904 247.903 183.786 248.055 183.622 248.096L183.549 248.106L130.546 250.443C130.346 250.452 130.176 250.297 130.167 250.096C130.16 249.921 130.278 249.769 130.441 249.728L130.514 249.717L183.517 247.381Z" fill="#CCD7EE"/>
<path d="M169.299 243.504C169.5 243.495 169.669 243.65 169.679 243.851C169.686 244.026 169.568 244.178 169.404 244.219L169.331 244.23L116.329 246.566C116.128 246.575 115.958 246.42 115.949 246.219C115.942 246.044 116.06 245.892 116.224 245.851L116.297 245.84L169.299 243.504Z" fill="#CCD7EE"/>
<path d="M160.111 235.47C160.311 235.461 160.481 235.616 160.49 235.817C160.497 235.992 160.379 236.144 160.216 236.185L160.143 236.196L107.14 238.532C106.94 238.541 106.77 238.386 106.761 238.185C106.753 238.01 106.871 237.858 107.035 237.817L107.108 237.806L160.111 235.47Z" fill="#CCD7EE"/>
<path fill-rule="evenodd" clip-rule="evenodd" d="M144.609 271.076L140.789 271.105L77.2831 245.513L59.645 133.356L128.68 152.888L144.609 271.076Z" fill="#4E5C93"/>
<path fill-rule="evenodd" clip-rule="evenodd" d="M140.653 271.102L73.6799 244.145C73.0681 243.899 72.6293 243.349 72.5276 242.698L55.4577 134.902C55.2441 133.546 56.5069 132.427 57.8263 132.802L123.303 151.424C124.02 151.627 124.548 152.238 124.648 152.977L140.653 271.102Z" fill="#253368"/>
<path fill-rule="evenodd" clip-rule="evenodd" d="M193.27 236.401C194.944 240.932 199.446 243.78 204.257 243.352L301.772 234.684C312.585 233.723 320.282 223.748 318.469 213.044C316.651 202.321 306.065 195.436 295.527 198.125L200.665 222.321C194.51 223.89 191.067 230.444 193.27 236.401Z" fill="#F4B784"/>
<path fill-rule="evenodd" clip-rule="evenodd" d="M198.698 243.668C191.795 248.515 170.424 245.337 170.424 245.337L156.176 252.388C153.973 253.268 153.447 251.799 152.357 251.799C149.42 251.799 149.42 248.716 149.42 248.716C148.407 248.235 146.777 249.009 146.335 246.218C146.335 246.218 144.279 246.071 144.132 243.575C144.055 242.255 157.443 223.211 157.443 223.211L177.422 223.757C177.422 223.757 206.608 224.302 209.88 230.848C213.154 237.395 198.698 243.668 198.698 243.668Z" fill="#F4B784"/>
<path d="M168.917 233.218C169.202 233.116 169.515 233.264 169.617 233.549C169.708 233.806 169.597 234.085 169.366 234.213L169.285 234.249L161.187 237.142L151.271 247.932C151.207 247.995 151.107 248.107 151.001 248.254L150.921 248.371C150.644 248.791 150.525 249.194 150.615 249.523C150.768 250.078 151.525 250.579 153.151 250.904C153.448 250.963 153.64 251.252 153.581 251.549C153.522 251.845 153.233 252.038 152.936 251.978C150.947 251.58 149.844 250.851 149.559 249.813C149.368 249.119 149.572 248.425 150.006 247.768C150.159 247.535 150.313 247.349 150.424 247.231L150.485 247.169L160.473 236.301C160.513 236.257 160.56 236.221 160.611 236.192L160.692 236.156L168.917 233.218Z" fill="#DD936F"/>
<path d="M164.019 228.539C164.292 228.409 164.619 228.525 164.749 228.798C164.867 229.043 164.785 229.333 164.568 229.483L164.491 229.528L158.142 232.558L148.644 244.39L148.521 244.531L148.461 244.604C148.316 244.781 148.172 244.977 148.038 245.186C147.735 245.655 147.533 246.112 147.475 246.512C147.352 247.348 147.863 247.909 149.507 248.174C149.806 248.222 150.009 248.503 149.961 248.802C149.913 249.101 149.632 249.304 149.333 249.256C147.141 248.903 146.173 247.839 146.391 246.353C146.476 245.773 146.737 245.182 147.116 244.592C147.274 244.347 147.442 244.119 147.611 243.912L147.721 243.78C147.753 243.742 147.779 243.713 147.797 243.694L147.817 243.672L157.366 231.776C157.4 231.733 157.441 231.696 157.486 231.665L157.557 231.624L164.019 228.539Z" fill="#DD936F"/>
<path d="M173.998 238.188C174.296 238.134 174.581 238.332 174.635 238.63C174.684 238.897 174.529 239.155 174.28 239.244L174.194 239.267L164.662 240.998L154.33 251.044L154.329 251.062C154.325 251.125 154.33 251.188 154.347 251.249L154.38 251.337C154.535 251.648 155.049 251.869 156.162 251.839C157.085 251.815 158.907 250.991 161.278 249.582C161.764 249.294 162.267 248.984 162.784 248.656C163.905 247.945 165.04 247.184 166.131 246.422L166.677 246.037L167.552 245.408C167.629 245.351 167.72 245.315 167.816 245.305L168.361 245.252L168.917 245.204C169.211 245.181 169.528 245.158 169.866 245.136C172.434 244.969 175.289 244.912 178.264 245.03L180.318 245.124C188.997 245.54 194.066 245.048 199.973 242.272L200.368 242.084L200.57 242.03L249.667 238.756C249.969 238.736 250.23 238.965 250.25 239.267C250.268 239.538 250.085 239.777 249.828 239.837L249.74 239.85L200.748 243.116L200.437 243.265C194.465 246.072 189.342 246.619 180.849 246.246L178.22 246.125C175.287 246.008 172.469 246.065 169.937 246.229L169.301 246.274C169.098 246.289 168.906 246.304 168.724 246.32L168.081 246.379L167.311 246.931C167.136 247.055 166.951 247.185 166.758 247.32C165.655 248.091 164.507 248.861 163.371 249.581C162.845 249.915 162.333 250.23 161.838 250.524C159.295 252.035 157.374 252.903 156.19 252.935C154.694 252.974 153.774 252.58 153.399 251.824C153.22 251.464 153.199 251.094 153.266 250.756C153.28 250.687 153.295 250.633 153.308 250.594C153.326 250.54 153.353 250.489 153.388 250.443L153.444 250.378L164.019 240.097C164.077 240.04 164.148 239.998 164.224 239.972L164.303 239.951L173.998 238.188Z" fill="#DD936F"/>
<path d="M286.388 199.497C286.681 199.42 286.98 199.594 287.058 199.887C287.127 200.15 286.993 200.419 286.752 200.527L286.668 200.556L194.747 224.831L194.592 224.849L157.734 223.767L144.615 243.832L144.57 243.926C144.552 243.965 144.532 244.013 144.512 244.067L144.48 244.153C144.388 244.414 144.336 244.672 144.343 244.894C144.362 245.504 144.821 245.814 146.282 245.673C146.583 245.644 146.851 245.865 146.88 246.166C146.909 246.467 146.689 246.735 146.387 246.764C144.35 246.96 143.29 246.242 143.247 244.929C143.236 244.552 143.313 244.167 143.447 243.788C143.502 243.632 143.557 243.502 143.615 243.386L143.673 243.274L156.985 222.911C157.072 222.778 157.212 222.691 157.366 222.669L157.46 222.664L194.546 223.751L286.388 199.497Z" fill="#DD936F"/>
<path d="M185.192 178.849L214.605 182.394C215.003 182.442 215.287 182.804 215.239 183.202C215.195 183.567 214.888 183.836 214.53 183.842L214.431 183.836L185.018 180.292C184.62 180.244 184.336 179.882 184.384 179.484C184.428 179.119 184.736 178.85 185.094 178.844L185.192 178.849Z" fill="#253368"/>
</svg>
