<svg width="114" height="114" viewBox="0 0 114 114" fill="none" xmlns="http://www.w3.org/2000/svg">
<path d="M104.793 21.4749H9.20712C7.56532 21.4749 6.23438 22.8059 6.23438 24.4477V93.0904C6.23438 94.7322 7.56532 96.0631 9.20712 96.0631H104.793C106.435 96.0631 107.766 94.7322 107.766 93.0904V24.4477C107.766 22.8059 106.435 21.4749 104.793 21.4749Z" fill="#E4EBF7"/>
<path d="M97.4695 34.7379H16.5305C15.9063 34.7379 15.4004 35.2439 15.4004 35.868V88.1041C15.4004 88.7282 15.9063 89.2342 16.5305 89.2342H97.4695C98.0936 89.2342 98.5996 88.7282 98.5996 88.1041V35.868C98.5996 35.2439 98.0936 34.7379 97.4695 34.7379Z" fill="#253368"/>
<path d="M82.8577 51.4757H26.5437V54.1206H82.8577V51.4757Z" fill="white"/>
<path d="M54.6992 60.6764H26.5422V63.3213H54.6992V60.6764Z" fill="#FAAD14"/>
<path d="M54.6992 79.0777H26.5422V81.7226H54.6992V79.0777Z" fill="#E4EBF7"/>
<path d="M43.4348 42.24H26.5406V44.8849H43.4348V42.24Z" fill="#E4EBF7"/>
<path d="M68.8453 60.6413H60.3844V63.2862H68.8453V60.6413Z" fill="#E4EBF7"/>
<path d="M68.7784 69.877H26.543V72.522H68.7784V69.877Z" fill="white"/>
<path d="M8.95396 18.0352H104.995C106.497 18.0352 107.715 19.2275 107.715 20.6982V28.6342H6.23438V20.6982C6.23438 19.2275 7.45198 18.0352 8.95396 18.0352Z" fill="#253368"/>
<path d="M12.0476 25.2354C13.1196 25.2354 13.9887 24.3844 13.9887 23.3347C13.9887 22.2849 13.1196 21.4339 12.0476 21.4339C10.9755 21.4339 10.1064 22.2849 10.1064 23.3347C10.1064 24.3844 10.9755 25.2354 12.0476 25.2354Z" fill="#FF7946"/>
<path d="M19.2974 25.2354C20.3695 25.2354 21.2385 24.3844 21.2385 23.3347C21.2385 22.2849 20.3695 21.4339 19.2974 21.4339C18.2254 21.4339 17.3563 22.2849 17.3563 23.3347C17.3563 24.3844 18.2254 25.2354 19.2974 25.2354Z" fill="#FAAD14"/>
<path d="M26.5485 25.2354C27.6206 25.2354 28.4896 24.3844 28.4896 23.3347C28.4896 22.2849 27.6206 21.4339 26.5485 21.4339C25.4765 21.4339 24.6074 22.2849 24.6074 23.3347C24.6074 24.3844 25.4765 25.2354 26.5485 25.2354Z" fill="#7CB305"/>
</svg>
