<svg width="100" height="100" viewBox="0 0 100 100" fill="none" xmlns="http://www.w3.org/2000/svg">
<g opacity="0.6">
<path fill-rule="evenodd" clip-rule="evenodd" d="M53.218 24.2188L36.8118 75.7575H46.7306L63.1369 24.2188H53.218Z" fill="#597EF7"/>
<path fill-rule="evenodd" clip-rule="evenodd" d="M29.8234 30.0782H19.2939H12.6562C12.1384 30.0782 11.7188 30.498 11.7188 31.0157V37.6534V62.3229V68.9605C11.7188 69.4784 12.1384 69.898 12.6562 69.898H19.2939H29.8234C30.3411 69.898 30.7609 69.4784 30.7609 68.9605V63.2604C30.7609 62.7426 30.3411 62.3229 29.8234 62.3229H19.2939V37.6534H29.8234C30.3411 37.6534 30.7609 37.2337 30.7609 36.7159V31.0157C30.7609 30.498 30.3411 30.0782 29.8234 30.0782Z" fill="#CCD7EE"/>
<path fill-rule="evenodd" clip-rule="evenodd" d="M87.2924 30.0782H80.6547H70.1252C69.6075 30.0782 69.1877 30.498 69.1877 31.0157V36.7159C69.1877 37.2337 69.6075 37.6534 70.1252 37.6534H80.6547V62.3229H70.1252C69.6075 62.3229 69.1877 62.7426 69.1877 63.2604V68.9605C69.1877 69.4784 69.6075 69.898 70.1252 69.898H80.6547H87.2924C87.8102 69.898 88.2299 69.4784 88.2299 68.9605V63.2604V36.7159V31.0157C88.2299 30.498 87.8102 30.0782 87.2924 30.0782Z" fill="#CCD7EE"/>
</g>
</svg>
