<svg width="61" height="61" viewBox="0 0 61 61" fill="none" xmlns="http://www.w3.org/2000/svg">
<g filter="url(#filter0_f)">
<path d="M41.1566 28.6648C41.1566 21.8417 35.6327 16.2526 28.8183 16.2526C22.0039 16.2526 16.4795 21.8417 16.4795 28.6648C16.4795 31.3652 17.9112 34.8533 20.21 37.425C22.4896 39.9733 23.1389 44.2633 23.1389 47.6843L23.1389 49.0256L34.4977 49.0256L34.4977 47.6955C34.4977 44.2745 35.147 39.9926 37.4149 37.4362C39.7214 34.838 41.1566 31.04 41.1566 28.6648Z" fill="#FFE58F"/>
</g>
<path d="M39.1261 28.6312C39.1261 22.9322 34.5125 18.2625 28.8184 18.2625C23.1242 18.2625 18.5117 22.9317 18.5117 28.6312C18.5117 30.889 19.7071 33.8016 21.6281 35.9499C23.5322 38.0789 24.9461 41.6627 24.9461 44.5203L24.9461 45.6398L32.6912 45.6398L32.6912 44.53C32.6912 41.6718 34.1051 38.0947 36.0001 35.9591C37.9271 33.7889 39.1261 30.6162 39.1261 28.6317L39.1261 28.6312Z" fill="#FAAD14"/>
<path d="M31.9499 55.2843L25.6867 55.2843C25.4678 55.2843 25.2681 55.1419 25.1492 54.9078L24.2972 52.7L33.3404 52.7L32.4884 54.9078C32.369 55.1419 32.1699 55.2843 31.9509 55.2843L31.9499 55.2843Z" fill="#393D65"/>
<path d="M33.4706 43.9229L24.166 43.9229C23.4744 43.9229 22.9138 44.4836 22.9138 45.1751L22.9138 52.3983C22.9138 53.0899 23.4744 53.6505 24.166 53.6505L33.4706 53.6505C34.1621 53.6505 34.7227 53.0899 34.7227 52.3983L34.7227 45.1751C34.7227 44.4836 34.1621 43.9229 33.4706 43.9229Z" fill="#597EF7"/>
<path fill-rule="evenodd" clip-rule="evenodd" d="M22.7799 46.7785C22.7799 46.6961 22.8467 46.6293 22.9291 46.6293L29.5819 46.6293C29.6643 46.6293 29.731 46.6961 29.731 46.7785C29.731 46.8609 29.6643 46.9277 29.5819 46.9277L22.9291 46.9277C22.8467 46.9277 22.7799 46.8609 22.7799 46.7785Z" fill="white"/>
<path fill-rule="evenodd" clip-rule="evenodd" d="M22.7799 51.1032C22.7799 51.0209 22.8467 50.9541 22.9291 50.9541L29.5819 50.9541C29.6643 50.9541 29.731 51.0209 29.731 51.1032C29.731 51.1856 29.6643 51.2524 29.5819 51.2524L22.9291 51.2524C22.8467 51.2524 22.7799 51.1856 22.7799 51.1032Z" fill="white"/>
<path fill-rule="evenodd" clip-rule="evenodd" d="M27.8827 48.9406C27.8827 48.8582 27.9495 48.7914 28.0318 48.7914L34.6847 48.7914C34.767 48.7914 34.8338 48.8582 34.8338 48.9406C34.8338 49.023 34.767 49.0898 34.6847 49.0898L28.0318 49.0898C27.9495 49.0898 27.8827 49.023 27.8827 48.9406Z" fill="white"/>
<path d="M29.6599 23.6762L25.0088 30.772C24.7585 31.1567 25.0277 31.6298 25.4785 31.6298L27.5621 31.6298L25.0004 36.4762C24.8094 36.8681 25.3019 37.2316 25.6039 36.9217L32.5706 29.9117C32.926 29.5469 32.6737 28.9238 32.1707 28.9238L29.0202 28.9238L30.3382 23.9856C30.4413 23.5641 29.8941 23.3168 29.6599 23.6762Z" fill="white"/>
<defs>
<filter id="filter0_f" x="14.4795" y="14.2526" width="28.6772" height="36.773" filterUnits="userSpaceOnUse" color-interpolation-filters="sRGB">
<feFlood flood-opacity="0" result="BackgroundImageFix"/>
<feBlend mode="normal" in="SourceGraphic" in2="BackgroundImageFix" result="shape"/>
<feGaussianBlur stdDeviation="1" result="effect1_foregroundBlur"/>
</filter>
</defs>
</svg>
