<svg width="100" height="30" viewBox="0 0 100 30" fill="none" xmlns="http://www.w3.org/2000/svg">
<path d="M28.375 19.05V21H20.245V10.5H28.18V12.45H22.66V14.73H27.535V16.62H22.66V19.05H28.375ZM34.0585 10.5H36.4885V19.02H41.7535V21H34.0585V10.5ZM46.8612 10.5H49.2912V21H46.8612V10.5ZM62.4481 18.75H57.5731L56.6431 21H54.1531L58.8331 10.5H61.2331L65.9281 21H63.3781L62.4481 18.75ZM61.6831 16.905L60.0181 12.885L58.3531 16.905H61.6831Z" fill="white"/>
<path fill-rule="evenodd" clip-rule="evenodd" d="M79.9715 0L70 30H76.0285L86 0H79.9715Z" fill="#1D2EC3"/>
<path fill-rule="evenodd" clip-rule="evenodd" d="M10.4584 3H4.37589H0.541562C0.242417 3 0 3.24246 0 3.5415V7.37547V21.6246V25.4585C0 25.7576 0.242417 26 0.541562 26H4.37589H10.4584C10.7575 26 11 25.7576 11 25.4585V22.1661C11 21.867 10.7575 21.6246 10.4584 21.6246H4.37589V7.37547H10.4584C10.7575 7.37547 11 7.13301 11 6.83397V3.5415C11 3.24246 10.7575 3 10.4584 3Z" fill="white"/>
<path fill-rule="evenodd" clip-rule="evenodd" d="M99.4584 3H95.624H89.5416C89.2425 3 89 3.24246 89 3.5415V6.83397C89 7.13301 89.2425 7.37547 89.5416 7.37547H95.624V21.6246H89.5416C89.2425 21.6246 89 21.867 89 22.1661V25.4585C89 25.7576 89.2425 26 89.5416 26H95.624H99.4584C99.7576 26 100 25.7576 100 25.4585V22.1661V6.83397V3.5415C100 3.24246 99.7576 3 99.4584 3Z" fill="white"/>
</svg>
