<?xml version="1.0" standalone="no"?>
<!DOCTYPE svg PUBLIC "-//W3C//DTD SVG 20010904//EN"
 "http://www.w3.org/TR/2001/REC-SVG-20010904/DTD/svg10.dtd">
<svg version="1.0" xmlns="http://www.w3.org/2000/svg"
 width="24.000000pt" height="24.000000pt" viewBox="0 0 24.000000 24.000000"
 preserveAspectRatio="xMidYMid meet">

<g transform="translate(0.000000,24.000000) scale(0.100000,-0.100000)"
fill="#000000" stroke="none">
<path d="M0 213 c1 -24 2 -25 11 -11 5 10 17 22 27 27 14 9 13 10 -10 11 -24
0 -28 -4 -28 -27z"/>
<path d="M118 217 c19 -20 22 -35 22 -97 0 -62 -3 -77 -22 -97 l-21 -23 71 0
72 0 0 120 0 120 -72 0 -71 0 21 -23z"/>
<path d="M35 205 c-21 -20 -25 -34 -25 -85 0 -51 4 -65 25 -85 30 -31 40 -31
70 0 21 20 25 34 25 85 0 51 -4 65 -25 85 -13 14 -29 25 -35 25 -6 0 -22 -11
-35 -25z m45 -35 c0 -11 -4 -20 -10 -20 -5 0 -10 9 -10 20 0 11 5 20 10 20 6
0 10 -9 10 -20z"/>
<path d="M0 28 c0 -24 4 -28 28 -28 23 1 24 2 10 11 -10 5 -22 17 -27 27 -9
14 -10 13 -11 -10z"/>
</g>
</svg>
