<svg width="233" height="233" viewBox="0 0 233 233" fill="none" xmlns="http://www.w3.org/2000/svg">
<path fill-rule="evenodd" clip-rule="evenodd" d="M144.049 17.2056C171.286 4.32237 187.519 38.1104 173.821 56.923C157.105 79.8802 148.542 106.296 143.774 114.254C139.751 120.968 128.733 137.336 115.464 129.792C103.253 122.849 109.909 95.5988 109.909 95.5988C109.909 95.5988 110.448 33.0989 144.049 17.2056Z" fill="#5B8C00"/>
<path fill-rule="evenodd" clip-rule="evenodd" d="M62.1243 124.545C52.8646 112.053 49.4836 94.1249 59.8191 89.5276C69.7283 85.1202 86.1427 95.9725 93.7457 116.859C101.349 137.745 105.735 152.761 98.2979 155.372C86.0961 159.656 74.3546 141.046 62.1243 124.545Z" fill="#5B8C00"/>
<path fill-rule="evenodd" clip-rule="evenodd" d="M159.472 125.494C148.999 137.767 133.886 162.457 124.418 153.81C118.679 148.569 126.351 123.752 147.349 110.249C165.211 98.763 169.946 113.221 159.472 125.494Z" fill="#7CB305"/>
<path fill-rule="evenodd" clip-rule="evenodd" d="M59.2535 40.3232C63.2362 37.6437 68.2467 37.0317 72.8182 38.496C79.1983 40.5395 88.8803 46.6241 98.4628 64.0887C110.973 86.8905 117.486 111.888 116.199 127.722C115.357 138.077 102.6 142.541 95.4634 134.991C92.1859 131.523 88.718 126.178 85.3249 118.069C71.6699 85.4383 58.9034 64.99 57.3809 62.9368C53.3188 57.458 50.4143 46.2705 59.2535 40.3232Z" fill="#7CB305"/>
<path fill-rule="evenodd" clip-rule="evenodd" d="M68.4118 53.3386C68.5469 54.9498 67.3503 56.3653 65.7393 56.5004C64.1281 56.6357 62.7126 55.4392 62.5773 53.8279C62.4422 52.217 63.6388 50.8015 65.25 50.6661C66.861 50.5311 68.2765 51.7276 68.4118 53.3386Z" fill="white"/>
<path fill-rule="evenodd" clip-rule="evenodd" d="M93.2771 65.8374C93.4125 67.4484 92.2159 68.8641 90.6047 68.9992C88.9934 69.1345 87.578 67.9379 87.4426 66.3267C87.3076 64.7158 88.5041 63.3003 90.1154 63.1649C91.7263 63.0299 93.1421 64.2264 93.2771 65.8374Z" fill="white"/>
<path fill-rule="evenodd" clip-rule="evenodd" d="M89.1096 99.1162C89.2645 100.961 87.8942 102.582 86.0491 102.737C84.204 102.892 82.5829 101.522 82.4282 99.6765C82.2733 97.8316 83.6436 96.2105 85.4888 96.0556C87.3336 95.9007 88.9548 97.2711 89.1096 99.1162Z" fill="white"/>
<path fill-rule="evenodd" clip-rule="evenodd" d="M165.484 49.3825C165.484 52.0011 163.361 54.1238 160.743 54.1238C158.124 54.1238 156.001 52.0011 156.001 49.3825C156.001 46.7641 158.124 44.6414 160.743 44.6414C163.361 44.6414 165.484 46.7641 165.484 49.3825Z" fill="white"/>
<path fill-rule="evenodd" clip-rule="evenodd" d="M127.316 63.8606C127.316 66.4789 125.194 68.6017 122.575 68.6017C119.957 68.6017 117.834 66.4789 117.834 63.8606C117.834 61.2422 119.957 59.1195 122.575 59.1195C125.194 59.1195 127.316 61.2422 127.316 63.8606Z" fill="white"/>
<path fill-rule="evenodd" clip-rule="evenodd" d="M139.678 96.0437C139.678 97.1381 138.79 98.0254 137.696 98.0254C136.602 98.0254 135.714 97.1381 135.714 96.0437C135.714 94.9491 136.602 94.0618 137.696 94.0618C138.79 94.0618 139.678 94.9491 139.678 96.0437Z" fill="white"/>
<path fill-rule="evenodd" clip-rule="evenodd" d="M153.954 121.387C153.954 123.003 152.643 124.314 151.027 124.314C149.41 124.314 148.099 123.003 148.099 121.387C148.099 119.77 149.41 118.459 151.027 118.459C152.643 118.459 153.954 119.77 153.954 121.387Z" fill="white"/>
<path d="M85.5773 127.88C85.8501 127.62 86.2822 127.63 86.5424 127.903L86.6672 128.037L86.7618 128.142C86.9339 128.334 87.1327 128.563 87.356 128.83C87.9905 129.586 88.696 130.49 89.4547 131.541C91.6169 134.535 93.7769 138.107 95.7917 142.251C101.541 154.077 104.99 168.124 104.99 184.34C104.99 184.717 104.684 185.023 104.307 185.023C103.93 185.023 103.625 184.717 103.625 184.34C103.625 168.338 100.226 154.494 94.5639 142.848C92.5846 138.776 90.4652 135.272 88.3479 132.34C87.6523 131.377 87.0043 130.543 86.4189 129.838L86.3099 129.707C86.1438 129.509 85.9925 129.333 85.8572 129.18L85.686 128.988C85.6226 128.918 85.5784 128.87 85.5544 128.845C85.2942 128.572 85.3044 128.14 85.5773 127.88Z" fill="#253368"/>
<path d="M137.149 132.658C137.374 132.356 137.802 132.294 138.104 132.519C138.406 132.745 138.468 133.172 138.243 133.474C135.757 136.804 133.462 140.385 131.352 144.18C126.892 152.203 123.443 160.804 120.884 169.406C119.988 172.417 119.267 175.212 118.706 177.719L118.593 178.233C118.459 178.846 118.343 179.405 118.245 179.906L118.181 180.234L118.068 180.853C118.005 181.225 117.653 181.476 117.281 181.413C116.91 181.351 116.659 180.998 116.722 180.627L116.76 180.407C116.792 180.23 116.832 180.021 116.878 179.781L116.991 179.213C117.101 178.671 117.228 178.073 117.374 177.421L117.498 176.873C118.047 174.479 118.735 171.841 119.575 169.017C122.161 160.325 125.646 151.634 130.159 143.516C132.298 139.67 134.625 136.038 137.149 132.658Z" fill="#253368"/>
<path d="M149.078 47.4926C149.339 47.743 149.358 48.1512 149.128 48.4243L149.098 48.4577C149.085 48.4717 149.056 48.5023 149.012 48.5495L148.844 48.7327L148.747 48.841C148.453 49.1685 148.111 49.5628 147.726 50.024C146.62 51.3463 145.387 52.9376 144.058 54.7987C140.254 60.1245 136.447 66.539 132.893 74.0487C126.976 86.5521 122.367 100.813 119.574 116.844C116.182 136.312 115.62 157.578 118.396 180.659C118.441 181.033 118.175 181.373 117.8 181.418C117.426 181.463 117.086 181.196 117.041 180.822C114.249 157.609 114.814 136.208 118.229 116.61C121.043 100.455 125.69 86.077 131.659 73.4646C135.249 65.8797 139.097 59.3954 142.947 54.0051L143.245 53.5897C144.432 51.9457 145.542 50.5158 146.553 49.2994L146.678 49.1485C147.041 48.7144 147.367 48.3368 147.653 48.0156L147.73 47.9294C147.82 47.8298 147.9 47.7419 147.97 47.6655L148.112 47.5131C148.373 47.2409 148.805 47.2317 149.078 47.4926Z" fill="#253368"/>
<path d="M89.9914 87.9727C90.3138 87.7774 90.7336 87.8803 90.929 88.2028L90.9975 88.3178C91.0521 88.4102 91.1163 88.5204 91.1898 88.6481L91.2969 88.8355C91.48 89.1573 91.6857 89.5271 91.9123 89.9443L92.1 90.2918C92.7942 91.5843 93.5551 93.0799 94.3675 94.7738L94.4786 95.006C97.1284 100.558 99.7769 107.05 102.248 114.427C109.168 135.082 113.377 158.526 113.535 184.336C113.537 184.713 113.233 185.02 112.856 185.023C112.479 185.025 112.172 184.721 112.17 184.344C112.013 158.686 107.829 135.384 100.954 114.86C98.5451 107.671 95.9684 101.331 93.3898 95.8951L93.2465 95.5941C92.3651 93.7474 91.5447 92.136 90.8047 90.766L90.5818 90.3562C90.3681 89.9661 90.1757 89.6234 90.0062 89.3287L89.9257 89.1893L89.7614 88.9103C89.566 88.5879 89.669 88.1681 89.9914 87.9727Z" fill="#253368"/>
<path fill-rule="evenodd" clip-rule="evenodd" d="M142.528 218.2H83.5232C80.3336 218.2 77.724 215.59 77.724 212.401V169.354C77.724 166.165 80.3336 163.555 83.5232 163.555H142.528C145.717 163.555 148.327 166.165 148.327 169.354V212.401C148.327 215.59 145.717 218.2 142.528 218.2Z" fill="#253368"/>
</svg>
