<svg width="259" height="259" viewBox="0 0 259 259" fill="none" xmlns="http://www.w3.org/2000/svg">
<path fill-rule="evenodd" clip-rule="evenodd" d="M142.878 75.2553C142.878 82.6337 136.897 88.6148 129.519 88.6148C122.141 88.6148 116.159 82.6337 116.159 75.2553C116.159 67.8776 122.141 61.8964 129.519 61.8964C136.897 61.8964 142.878 67.8776 142.878 75.2553Z" fill="#253368"/>
<path fill-rule="evenodd" clip-rule="evenodd" d="M127.012 195.487H132.183V79.2452H127.012V195.487Z" fill="#253368"/>
<path fill-rule="evenodd" clip-rule="evenodd" d="M127.013 195.487L66.7846 205.519L62.8976 202.712L127.013 183.827V195.487Z" fill="#253368"/>
<path fill-rule="evenodd" clip-rule="evenodd" d="M132.183 195.487L192.411 205.519L196.298 202.712L132.183 183.827V195.487Z" fill="#253368"/>
<path fill-rule="evenodd" clip-rule="evenodd" d="M125.495 208.974H133.7V192.131H125.495V208.974Z" fill="#253368"/>
<path fill-rule="evenodd" clip-rule="evenodd" d="M72.4277 209.197C72.4277 213.044 69.3097 216.161 65.4644 216.161C61.6183 216.161 58.5004 213.044 58.5004 209.197C58.5004 205.351 61.6183 202.234 65.4644 202.234C69.3097 202.234 72.4277 205.351 72.4277 209.197Z" fill="#253368"/>
<path fill-rule="evenodd" clip-rule="evenodd" d="M136.562 209.197C136.562 213.044 133.444 216.161 129.598 216.161C125.752 216.161 122.634 213.044 122.634 209.197C122.634 205.351 125.752 202.234 129.598 202.234C133.444 202.234 136.562 205.351 136.562 209.197Z" fill="#253368"/>
<path fill-rule="evenodd" clip-rule="evenodd" d="M201.305 209.197C201.305 213.044 198.187 216.161 194.341 216.161C190.496 216.161 187.378 213.044 187.378 209.197C187.378 205.351 190.496 202.234 194.341 202.234C198.187 202.234 201.305 205.351 201.305 209.197Z" fill="#253368"/>
<path fill-rule="evenodd" clip-rule="evenodd" d="M213.257 72.8029H45.7804C45.7804 56.342 59.124 42.9985 75.5848 42.9985H183.453C199.913 42.9985 213.257 56.342 213.257 72.8029Z" fill="#A3B5D6"/>
</svg>
